<svg xmlns="http://www.w3.org/2000/svg" width="214" height="24" viewBox="0 0 214 24">
    <defs>
        <radialGradient id="a" cx="93.407%" cy="4.944%" r="738.206%" fx="93.407%" fy="4.944%" gradientTransform="scale(-.11233 -1) rotate(-6.664 -4.54 79.436)">
            <stop offset="0%" stop-color="#21C3FA"/>
            <stop offset="100%" stop-color="#0076C0"/>
        </radialGradient>
    </defs>
    <path fill="url(#a)" fill-rule="evenodd" d="M63.985 18.922V10.75l-2.027 8.172h-2.453l-2.008-8.172v8.172H53.99V4.408h4.663l2.149 9.188 2.129-9.188h4.663v14.514h-3.61zm21.343 0l-.507-2.642h-3.365l-.528 2.642h-3.851l3.73-14.514h4.926l3.568 14.514h-3.973zM83.158 7.56l-1.094 5.61h2.169l-1.074-5.61zm15.626 11.363V4.408h4.623c1.622 0 2.895.444 3.821 1.332.926.887 1.389 2.104 1.389 3.648 0 .99-.21 1.86-.629 2.613a4.454 4.454 0 0 1-1.804 1.768c-.784.427-1.703.64-2.757.64h-.831v4.513h-3.812zm4.623-7.846c1.108 0 1.662-.556 1.662-1.667s-.554-1.667-1.662-1.667h-.811v3.334h.81zm25.012 7.846V10.75l-2.027 8.172h-2.453l-2.007-8.172v8.172h-3.508V4.408h4.663l2.15 9.188 2.128-9.188h4.663v14.514h-3.609zm16.781 0v-5.346l-3.75-9.168h4.257l1.541 5.509 1.54-5.509h4.137l-3.751 9.168v5.346H145.2zm23.27 0l-1.805-4.878h-.993v4.878h-3.73V4.408h5.027c1.622 0 2.882.413 3.781 1.24s1.348 1.986 1.348 3.476c0 .786-.169 1.508-.507 2.165a4.626 4.626 0 0 1-1.44 1.657l2.454 5.976h-4.136zm-1.724-8.03c.527 0 .93-.145 1.206-.436.277-.292.416-.708.416-1.25 0-.529-.135-.936-.406-1.22-.27-.285-.662-.427-1.175-.427h-1.115v3.334h1.074zm21.951-6.484h3.974v9.026c0 1.91-.456 3.364-1.369 4.36-.912.996-2.24 1.494-3.983 1.494-1.744 0-3.072-.498-3.984-1.494-.912-.996-1.369-2.45-1.369-4.36V4.408h3.974v9.33c0 .678.108 1.173.324 1.485.217.311.568.467 1.055.467.486 0 .837-.156 1.054-.467.216-.312.324-.807.324-1.484v-9.33zm21.424 14.514l-3.487-7.297v7.297h-3.65V4.408h3.528L210 11.706V4.408h3.65v14.514h-3.528zM32.918 12c4.429 1.963 7.32 4.911 7.478 8.184 0 0-1.168.907-4.939 2.306C32.144 23.717 29.618 24 29.618 24l.011-7.288c0-1.09-.434-2.204-1.255-3.189-2.506.612-5.273.957-8.178.957h-.001c-2.903 0-5.666-.344-8.17-.955-.82.985-1.254 2.097-1.254 3.187L10.783 24s-2.526-.283-5.84-1.51c-3.77-1.4-4.938-2.307-4.938-2.307.157-3.271 3.047-6.219 7.473-8.182C3.048 10.038.158 7.09 0 3.817c0 0 1.167-.907 4.938-2.306C8.252.28 10.778 0 10.778 0l-.012 7.288c0 1.09.435 2.204 1.256 3.189 2.505-.612 5.273-.957 8.178-.957h.002c2.901 0 5.665.344 8.169.955.82-.985 1.253-2.098 1.253-3.187L29.612 0s2.526.282 5.84 1.51c3.771 1.4 4.938 2.307 4.938 2.307-.157 3.271-3.047 6.218-7.472 8.182zm-12.721 1.64l.083-.001c2.623 0 4.76-.65 6.327-1.64-1.566-.988-3.702-1.636-6.322-1.636l-.083-.001h-.004l-.082.001c-2.623 0-4.761.65-6.328 1.64 1.567.989 3.703 1.636 6.324 1.636l.081.001h.004z"/>
</svg>
